<svg xmlns="http://www.w3.org/2000/svg" version="1.1" xmlns:xlink="http://www.w3.org/1999/xlink" xmlns:svgjs="http://svgjs.dev/svgjs" width="1920" height="1080" preserveAspectRatio="none" viewBox="0 0 1920 1080">
  <defs>
    <filter id="blur-filter" x="0" y="0" width="100%" height="100%">
      <feGaussianBlur in="SourceGraphic" stdDeviation="0" />
    </filter>
    <mask id="SvgjsMask1249">
      <rect width="1920" height="1080" fill="#ffffff"></rect>
    </mask>
  </defs>
  <g mask="url(#SvgjsMask1249)" fill="none" filter="url(#blur-filter)">
    <rect width="1920" height="1080" x="0" y="0" fill="rgba(255, 255, 255, 1)"></rect>
    <path d="M0.05 -7.2L64.14 29.8L64.14 103.8L0.05 140.8L-64.04 103.8L-64.04 29.8zM64.14 103.8L128.23 140.8L128.23 214.8L64.14 251.8L0.05 214.8L0.05 140.8zM0.05 214.8L64.14 251.8L64.14 325.8L0.05 362.8L-64.04 325.8L-64.04 251.8zM64.14 991.8L128.23 1028.8L128.23 1102.8L64.14 1139.8L0.05 1102.8L0.05 1028.8zM192.31 325.8L256.4 362.8L256.4 436.8L192.31 473.8L128.23 436.8L128.23 362.8zM256.4 214.8L320.49 251.8L320.49 325.8L256.4 362.8L192.31 325.8L192.31 251.8zM320.49 325.8L384.58 362.8L384.58 436.8L320.49 473.8L256.4 436.8L256.4 362.8zM256.4 436.8L320.49 473.8L320.49 547.8L256.4 584.8L192.31 547.8L192.31 473.8zM256.4 658.8L320.49 695.8L320.49 769.8L256.4 806.8L192.31 769.8L192.31 695.8zM320.49 769.8L384.58 806.8L384.58 880.8L320.49 917.8L256.4 880.8L256.4 806.8zM256.4 880.8L320.49 917.8L320.49 991.8L256.4 1028.8L192.31 991.8L192.31 917.8zM448.66 103.8L512.75 140.8L512.75 214.8L448.66 251.8L384.58 214.8L384.58 140.8zM448.66 325.8L512.75 362.8L512.75 436.8L448.66 473.8L384.58 436.8L384.58 362.8zM448.66 547.8L512.75 584.8L512.75 658.8L448.66 695.8L384.58 658.8L384.58 584.8zM448.66 769.8L512.75 806.8L512.75 880.8L448.66 917.8L384.58 880.8L384.58 806.8zM384.58 880.8L448.66 917.8L448.66 991.8L384.58 1028.8L320.49 991.8L320.49 917.8zM512.75 1102.8L576.84 1139.8L576.84 1213.8L512.75 1250.8L448.66 1213.8L448.66 1139.8zM705.01 103.8L769.1 140.8L769.1 214.8L705.01 251.8L640.93 214.8L640.93 140.8zM705.01 325.8L769.1 362.8L769.1 436.8L705.01 473.8L640.93 436.8L640.93 362.8zM640.93 658.8L705.01 695.8L705.01 769.8L640.93 806.8L576.84 769.8L576.84 695.8zM833.19 103.8L897.28 140.8L897.28 214.8L833.19 251.8L769.1 214.8L769.1 140.8zM769.1 214.8L833.19 251.8L833.19 325.8L769.1 362.8L705.01 325.8L705.01 251.8zM833.19 325.8L897.28 362.8L897.28 436.8L833.19 473.8L769.1 436.8L769.1 362.8zM769.1 436.8L833.19 473.8L833.19 547.8L769.1 584.8L705.01 547.8L705.01 473.8zM769.1 1102.8L833.19 1139.8L833.19 1213.8L769.1 1250.8L705.01 1213.8L705.01 1139.8zM897.28 -7.2L961.37 29.8L961.37 103.8L897.28 140.8L833.19 103.8L833.19 29.8zM897.28 214.8L961.37 251.8L961.37 325.8L897.28 362.8L833.19 325.8L833.19 251.8zM961.37 325.8L1025.45 362.8L1025.45 436.8L961.37 473.8L897.28 436.8L897.28 362.8zM897.28 658.8L961.37 695.8L961.37 769.8L897.28 806.8L833.19 769.8L833.19 695.8zM961.37 769.8L1025.45 806.8L1025.45 880.8L961.37 917.8L897.28 880.8L897.28 806.8zM1025.45 -7.2L1089.54 29.8L1089.54 103.8L1025.45 140.8L961.37 103.8L961.37 29.8zM1089.54 325.8L1153.63 362.8L1153.63 436.8L1089.54 473.8L1025.45 436.8L1025.45 362.8zM1025.45 436.8L1089.54 473.8L1089.54 547.8L1025.45 584.8L961.37 547.8L961.37 473.8zM1025.45 880.8L1089.54 917.8L1089.54 991.8L1025.45 1028.8L961.37 991.8L961.37 917.8zM1089.54 991.8L1153.63 1028.8L1153.63 1102.8L1089.54 1139.8L1025.45 1102.8L1025.45 1028.8zM1153.63 -7.2L1217.72 29.8L1217.72 103.8L1153.63 140.8L1089.54 103.8L1089.54 29.8zM1217.72 103.8L1281.8 140.8L1281.8 214.8L1217.72 251.8L1153.63 214.8L1153.63 140.8zM1153.63 214.8L1217.72 251.8L1217.72 325.8L1153.63 362.8L1089.54 325.8L1089.54 251.8zM1153.63 436.8L1217.72 473.8L1217.72 547.8L1153.63 584.8L1089.54 547.8L1089.54 473.8zM1217.72 769.8L1281.8 806.8L1281.8 880.8L1217.72 917.8L1153.63 880.8L1153.63 806.8zM1153.63 880.8L1217.72 917.8L1217.72 991.8L1153.63 1028.8L1089.54 991.8L1089.54 917.8zM1281.8 214.8L1345.89 251.8L1345.89 325.8L1281.8 362.8L1217.72 325.8L1217.72 251.8zM1345.89 547.8L1409.98 584.8L1409.98 658.8L1345.89 695.8L1281.8 658.8L1281.8 584.8zM1281.8 880.8L1345.89 917.8L1345.89 991.8L1281.8 1028.8L1217.72 991.8L1217.72 917.8zM1345.89 991.8L1409.98 1028.8L1409.98 1102.8L1345.89 1139.8L1281.8 1102.8L1281.8 1028.8zM1409.98 880.8L1474.07 917.8L1474.07 991.8L1409.98 1028.8L1345.89 991.8L1345.89 917.8zM1538.15 436.8L1602.24 473.8L1602.24 547.8L1538.15 584.8L1474.07 547.8L1474.07 473.8zM1538.15 880.8L1602.24 917.8L1602.24 991.8L1538.15 1028.8L1474.07 991.8L1474.07 917.8zM1666.33 -7.2L1730.42 29.8L1730.42 103.8L1666.33 140.8L1602.24 103.8L1602.24 29.8zM1730.42 769.8L1794.51 806.8L1794.51 880.8L1730.42 917.8L1666.33 880.8L1666.33 806.8zM1730.42 991.8L1794.51 1028.8L1794.51 1102.8L1730.42 1139.8L1666.33 1102.8L1666.33 1028.8zM1858.59 103.8L1922.68 140.8L1922.68 214.8L1858.59 251.8L1794.51 214.8L1794.51 140.8zM1794.51 214.8L1858.59 251.8L1858.59 325.8L1794.51 362.8L1730.42 325.8L1730.42 251.8zM1858.59 325.8L1922.68 362.8L1922.68 436.8L1858.59 473.8L1794.51 436.8L1794.51 362.8zM1858.59 547.8L1922.68 584.8L1922.68 658.8L1858.59 695.8L1794.51 658.8L1794.51 584.8z" stroke="rgba(195, 195, 195, 0.93)" stroke-width="2"></path>
  </g>
</svg>
